<svg width="600" height="400" viewBox="0 0 600 400" xmlns="http://www.w3.org/2000/svg">
  <rect width="600" height="400" fill="#0d1117"/>
  <rect x="1" y="1" width="598" height="398" fill="none" stroke="#30363d" stroke-width="1"/>
  <rect x="1" y="1" width="598" height="40" fill="#161b22"/>
  <line x1="1" y1="41" x2="599" y2="41" stroke="#30363d" stroke-width="1"/>
  <text x="20" y="26" font-family="ui-monospace,Consolas,monospace" font-size="13" fill="#8b949e">about.md</text>

  <text x="24" y="76" font-family="ui-monospace,Consolas,monospace" font-size="15" fill="#ff7b72">const</text>
  <text x="80" y="76" font-family="ui-monospace,Consolas,monospace" font-size="15" fill="#d2a8ff">focus</text>
  <text x="130" y="76" font-family="ui-monospace,Consolas,monospace" font-size="15" fill="#c9d1d9">= [</text>

  <g font-family="ui-monospace,Consolas,monospace" font-size="14" fill="#a5d6ff">
    <text x="48" y="106">"Natural Language Processing"</text>
    <text x="48" y="132">"Machine Learning"</text>
    <text x="48" y="158">"Full-Stack Development"</text>
  </g>
  <text x="24" y="186" font-family="ui-monospace,Consolas,monospace" font-size="15" fill="#c9d1d9">];</text>

  <line x1="24" y1="212" x2="576" y2="212" stroke="#30363d" stroke-width="1"/>

  <g>
    <rect x="24" y="234" width="6" height="6" fill="#3fb950"/>
    <text x="42" y="240" font-family="-apple-system,sans-serif" font-size="14" fill="#c9d1d9">Zarqa University — B.Sc. AI &amp; Data Science (2027)</text>
    <rect x="24" y="262" width="6" height="6" fill="#3fb950"/>
    <text x="42" y="268" font-family="-apple-system,sans-serif" font-size="14" fill="#c9d1d9">Native Arabic (Levantine) · Advanced English (B2)</text>
    <rect x="24" y="290" width="6" height="6" fill="#3fb950"/>
    <text x="42" y="296" font-family="-apple-system,sans-serif" font-size="14" fill="#c9d1d9">Currently building: Weather Intelligence Platform</text>
  </g>

  <rect x="24" y="330" width="140" height="26" rx="13" fill="#161b22" stroke="#30363d"/>
  <text x="94" y="347" font-family="-apple-system,sans-serif" font-size="12" fill="#58a6ff" text-anchor="middle">#machine-learning</text>
  <rect x="174" y="330" width="80" height="26" rx="13" fill="#161b22" stroke="#30363d"/>
  <text x="214" y="347" font-family="-apple-system,sans-serif" font-size="12" fill="#58a6ff" text-anchor="middle">#nlp</text>
  <rect x="264" y="330" width="130" height="26" rx="13" fill="#161b22" stroke="#30363d"/>
  <text x="329" y="347" font-family="-apple-system,sans-serif" font-size="12" fill="#58a6ff" text-anchor="middle">#full-stack</text>
</svg>
